<svg version="1.1" id="Layer_1" xmlns="http://www.w3.org/2000/svg" xmlns:xlink="http://www.w3.org/1999/xlink" x="0px" y="0px"
	 width="100%" viewBox="0 0 306 102" enable-background="new 0 0 306 102" xml:space="preserve">
<path fill="#FEFEFE" opacity="1.000000" stroke="none" 
	d="
M196.000000,103.000000 
	C130.666687,103.000000 65.833374,103.000000 1.000043,103.000000 
	C1.000029,69.000031 1.000029,35.000057 1.000015,1.000066 
	C102.999939,1.000044 204.999878,1.000044 306.999878,1.000022 
	C306.999908,34.999928 306.999908,68.999855 306.999939,102.999893 
	C270.166656,103.000000 233.333328,103.000000 196.000000,103.000000 
M165.504074,61.336678 
	C165.336060,61.891121 165.168030,62.445560 164.406967,63.588650 
	C164.277359,69.621941 164.075073,75.655624 164.108017,81.688034 
	C164.112244,82.462250 165.338974,83.229797 166.009232,84.747879 
	C167.912415,86.454079 169.737228,89.366982 171.742767,89.497215 
	C173.448074,89.607956 176.283325,86.822350 176.978210,84.764313 
	C178.174484,81.221306 178.095184,77.247597 178.565338,73.337128 
	C179.981995,74.023613 180.990387,74.512268 181.999390,75.813423 
	C182.607635,84.825989 187.518646,87.627556 195.406891,88.765297 
	C199.517761,89.358223 204.702271,90.844650 208.740234,85.993927 
	C214.507965,84.497391 216.511429,79.774506 216.850815,74.810928 
	C217.614731,63.638523 217.802002,52.416683 217.839691,41.213669 
	C217.846649,39.145340 216.046478,37.070930 214.905365,34.242790 
	C212.224091,23.740932 207.978439,19.958513 198.896088,19.980246 
	C190.141144,20.001194 185.533508,24.070732 182.316376,34.111748 
	C181.271133,35.331230 180.225876,36.550716 179.180634,37.770199 
	C177.998688,35.111546 178.387421,32.660011 177.880081,30.410572 
	C177.446167,28.486633 175.984650,26.794456 174.827682,24.169008 
	C175.214462,18.305758 171.546890,20.011181 167.779846,20.434160 
	C167.779846,29.770098 167.779846,38.823158 167.779846,47.693134 
	C162.076614,47.693134 157.010254,47.693134 151.500519,47.693134 
	C151.500519,38.312916 151.500519,29.368444 151.500519,20.336468 
	C147.937378,19.868160 144.535980,18.750021 143.980499,24.026306 
	C142.606155,26.400400 141.231812,28.774496 139.663727,31.483294 
	C139.235229,31.405296 138.121933,31.202652 136.641617,30.405819 
	C134.578491,24.600962 130.730042,20.786963 124.454147,20.063086 
	C117.995071,19.318079 112.733917,21.338202 109.050926,27.068224 
	C108.180313,28.422741 106.323357,29.143280 104.313507,29.818327 
	C100.289940,22.203297 94.817871,19.005281 87.006958,20.064949 
	C79.483727,21.085585 75.257385,25.720284 72.978180,33.013390 
	C71.779312,33.164738 70.580444,33.316090 69.491470,33.453564 
	C68.158623,30.283176 70.226761,25.808172 64.994934,24.153593 
	C64.912590,22.882790 64.830254,21.611984 64.745079,20.297455 
	C62.500168,20.297455 60.631233,20.297455 58.682373,20.297455 
	C58.461803,22.084011 58.281700,23.542793 57.352955,25.125669 
	C56.581001,26.948160 56.023067,28.909756 54.961048,30.543711 
	C54.265476,31.613874 52.840305,32.209824 51.335323,32.440460 
	C48.685974,23.227390 44.376976,19.976418 34.800465,19.969351 
	C31.308428,19.966776 27.786644,19.711414 24.340382,20.108734 
	C23.123564,20.249023 22.091272,21.989836 20.330923,23.061846 
	C19.887409,24.041267 19.443895,25.020691 19.000101,26.666660 
	C18.999941,27.111027 18.999781,27.555391 18.206720,28.182114 
	C17.805370,29.182728 17.058775,30.181778 17.054230,31.184189 
	C16.981056,47.332798 16.962406,63.482140 17.088058,79.630096 
	C17.096838,80.758392 18.333790,81.877129 18.999769,83.666870 
	C18.999897,84.111244 19.000025,84.555626 18.543465,85.342995 
	C19.029028,85.895332 19.514589,86.447662 20.438290,87.216530 
	C20.711525,87.416023 20.898787,87.677185 21.061270,88.585373 
	C21.707512,88.723587 22.353756,88.861794 23.750000,89.000000 
	C24.500000,89.000000 25.250000,89.000000 26.343012,89.456650 
	C26.895315,88.971100 27.447620,88.485550 28.216421,87.561852 
	C28.415895,87.288597 28.677038,87.101311 29.585243,86.938736 
	C29.723444,86.292488 29.861645,85.646248 30.000048,84.333435 
	C30.000158,83.889061 30.000269,83.444679 30.793129,82.817986 
	C31.195368,80.657898 31.843578,78.509438 31.946348,76.335197 
	C32.134323,72.358330 31.999847,68.366219 31.999847,64.380470 
	C32.597332,64.302681 33.194817,64.224884 33.792301,64.147095 
	C34.474678,65.718048 35.257160,67.254082 35.819767,68.866814 
	C37.237980,72.932198 38.531639,77.041374 39.996365,81.089165 
	C40.064632,81.277832 41.306175,81.041946 42.436897,81.254883 
	C42.984142,81.444733 43.531391,81.634590 44.531898,81.940224 
	C44.866470,82.010674 45.097034,82.204712 45.073914,83.254723 
	C45.044865,83.501961 45.015812,83.749199 44.480019,84.387993 
	C44.653297,85.592094 44.826572,86.796204 45.061234,88.585602 
	C45.707489,88.723732 46.353745,88.861862 47.833241,89.000000 
	C49.221905,88.999695 50.610573,88.999390 52.758125,88.913994 
	C54.505466,88.609230 56.252811,88.304466 58.000000,88.000000 
	C58.000000,88.000000 58.000153,87.999695 58.061295,88.585152 
	C58.707531,88.723335 59.353764,88.861511 60.833225,88.999962 
	C62.221874,88.999664 63.610527,88.999374 65.717422,88.880714 
	C67.227562,85.507309 68.737701,82.133904 70.178375,78.915657 
	C71.551971,80.079140 73.276138,81.539566 75.561577,83.261147 
	C76.374458,84.173996 77.187332,85.086845 78.085098,86.728790 
	C82.022346,91.370010 90.437355,92.416771 97.643097,89.161674 
	C102.375847,87.023705 108.819656,86.116669 113.120232,87.721321 
	C124.390312,95.356384 132.598343,89.428520 140.136292,81.163452 
	C141.134323,83.546104 141.706696,85.650894 142.818604,87.415764 
	C145.248138,91.272018 150.811569,90.962425 152.999390,86.165741 
	C152.999802,84.777161 153.000214,83.388580 153.593491,81.411354 
	C153.728989,74.940987 153.864487,68.470619 154.475983,61.456059 
	C155.982407,60.631588 157.488831,59.807114 159.852661,58.987885 
	C161.567932,58.988968 163.283218,58.990051 165.208588,59.512257 
	C165.469391,60.008175 165.730194,60.504093 165.504074,61.336678 
M222.222946,26.176687 
	C221.482025,31.788412 220.138458,37.398239 220.120773,43.012241 
	C220.078995,56.278526 220.466888,69.558014 221.205597,82.802910 
	C221.324554,84.935776 224.028702,88.570969 225.734619,88.689949 
	C234.082733,89.272171 242.515701,89.205994 250.879654,88.710472 
	C254.169495,88.515572 254.554535,85.330040 252.040359,82.115364 
	C251.937775,80.550171 251.835190,78.984978 251.700607,76.931572 
	C244.230988,76.931572 237.329193,76.931572 230.462204,76.931572 
	C230.462204,69.027672 230.462204,61.667461 230.462204,53.864845 
	C235.325119,53.864845 239.748016,53.864845 244.073181,53.864845 
	C245.417816,49.551949 244.191940,47.804798 239.983749,48.085323 
	C236.762527,48.300053 233.515518,48.128029 230.334991,48.128029 
	C230.334991,40.312439 230.334991,33.396252 230.334991,25.952051 
	C236.255402,25.952051 241.875595,25.752497 247.474304,26.013443 
	C252.188065,26.233145 252.843292,24.173531 251.524170,20.307085 
	C242.141602,20.307085 232.921524,20.307085 223.519409,20.307085 
	C223.332443,22.412125 223.173111,24.206036 222.222946,26.176687 
M256.024353,71.116409 
	C255.420135,72.140450 254.236633,73.203697 254.302872,74.182343 
	C254.854904,82.336349 261.706329,89.053459 270.140320,89.976067 
	C278.182831,90.855835 286.729156,85.326828 288.540649,77.336502 
	C289.116821,74.795258 287.651794,71.791252 286.985168,68.159012 
	C287.474121,61.869152 284.364532,57.348305 279.728821,53.649647 
	C275.832672,50.541084 271.424316,47.946064 268.039612,44.369537 
	C265.738708,41.938206 264.814026,38.204456 263.942780,34.923225 
	C271.121674,29.525522 271.119781,29.528275 278.773468,34.794754 
	C279.029877,34.971172 279.407837,34.970852 279.853119,35.823673 
	C279.911133,36.862953 279.969147,37.902237 280.016357,39.697205 
	C281.485382,41.023205 282.954407,42.349205 284.423431,43.675201 
	C284.988586,42.132641 285.553772,40.590080 286.274475,38.149612 
	C286.239044,36.489460 286.315735,34.817905 286.148224,33.171185 
	C285.516479,26.959745 282.402496,22.559505 276.318634,20.736193 
	C270.342896,18.945280 264.641205,19.616367 260.313446,24.477510 
	C256.137390,29.168224 254.191177,34.589249 256.823944,41.461315 
	C257.484894,44.047581 257.600830,46.973682 258.947083,49.132637 
	C260.568390,51.732750 263.106750,53.829273 265.476227,55.880295 
	C270.249268,60.011898 275.176788,63.965103 280.143188,68.771805 
	C279.929688,69.550880 279.653473,70.318840 279.513123,71.110878 
	C278.732941,75.514839 275.901917,77.865623 271.659729,77.821922 
	C266.804535,77.771896 264.321411,74.542221 263.403107,70.015587 
	C263.084442,68.444870 262.907990,66.845291 262.666931,65.261185 
	C260.642853,65.261185 258.912750,65.261185 257.037354,65.261185 
	C256.914612,67.391037 256.810822,69.192253 256.024353,71.116409 
z"/>
<path fill="#505050" opacity="1.000000" stroke="none" 
	d="
M20.974733,22.999910 
	C22.091272,21.989836 23.123564,20.249023 24.340382,20.108734 
	C27.786644,19.711414 31.308428,19.966776 34.800465,19.969351 
	C44.376976,19.976418 48.685974,23.227390 51.521004,33.179222 
	C52.669270,42.533642 50.321289,49.684586 42.270912,54.242817 
	C43.163593,56.540913 43.936733,58.531254 44.759750,60.875092 
	C47.174389,68.471313 49.539143,75.714035 51.675171,82.979492 
	C51.446442,83.002220 51.015114,83.161232 50.599342,83.101059 
	C48.530243,82.868034 46.876911,82.695190 45.223583,82.522339 
	C45.097034,82.204712 44.866470,82.010674 44.293056,81.491882 
	C41.661453,73.699120 39.268692,66.354691 36.988155,58.594017 
	C35.967564,51.740883 31.290293,56.018845 28.033714,54.692963 
	C28.033714,56.505939 28.033714,57.754608 27.948078,59.332924 
	C27.923983,60.108299 27.985523,60.554031 27.949474,61.459641 
	C27.859249,68.831078 27.866613,75.742645 27.462799,82.770981 
	C25.076197,82.809586 23.100769,82.731430 21.161709,82.207581 
	C21.122301,63.174393 21.046524,44.586906 21.065083,25.630249 
	C21.097855,24.507355 21.036293,23.753632 20.974733,22.999910 
M27.859306,31.926022 
	C27.859306,37.496780 27.859306,43.067535 27.859306,48.804890 
	C31.694004,48.804890 35.062897,49.280937 38.237675,48.698631 
	C43.643383,47.707134 45.830013,42.366562 44.880589,33.302109 
	C42.039928,25.809734 39.074337,24.553343 28.031754,26.308033 
	C28.031754,27.844694 28.031754,29.424030 27.859306,31.926022 
z"/>
<path fill="#8A8A8A" opacity="1.000000" stroke="none" 
	d="
M183.022842,33.999725 
	C185.533508,24.070732 190.141144,20.001194 198.896088,19.980246 
	C207.978439,19.958513 212.224091,23.740932 214.919220,35.084927 
	C214.922012,44.345261 215.151779,52.773220 214.811188,61.178066 
	C214.600830,66.369408 213.521973,71.525551 212.555145,76.902557 
	C203.954651,85.958473 193.966125,85.789169 185.100677,76.286285 
	C184.406891,72.708473 183.386368,69.506340 183.282928,66.274849 
	C182.992081,57.189522 183.078812,48.092102 183.088074,38.586750 
	C183.113953,36.782608 183.068405,35.391167 183.022842,33.999725 
M190.404297,32.503201 
	C190.346909,33.673210 190.289536,34.843224 190.071777,36.936119 
	C190.058136,47.561604 189.923660,58.188873 190.080811,68.811829 
	C190.161789,74.285805 194.240372,78.081726 199.247391,77.922028 
	C204.162537,77.765259 207.902283,74.116661 207.936462,68.867867 
	C208.009933,57.583977 207.834991,46.298466 207.927109,34.368114 
	C207.704254,33.548222 207.481400,32.728329 207.163147,31.175287 
	C205.516922,26.655687 201.984634,25.525721 197.643921,25.935806 
	C193.941925,26.285551 191.532852,28.160555 190.404297,32.503201 
z"/>
<path fill="#8A8A8A" opacity="1.000000" stroke="none" 
	d="
M144.705917,23.992462 
	C144.535980,18.750021 147.937378,19.868160 151.500519,20.336468 
	C151.500519,29.368444 151.500519,38.312916 151.500519,47.693134 
	C157.010254,47.693134 162.076614,47.693134 167.779846,47.693134 
	C167.779846,38.823158 167.779846,29.770098 167.779846,20.434160 
	C171.546890,20.011181 175.214462,18.305758 174.828857,25.048428 
	C174.840897,44.825783 174.851746,63.723717 174.451202,82.741905 
	C172.047058,82.875328 170.054321,82.888496 168.033020,82.935547 
	C168.004471,82.969421 168.089828,82.945671 168.060516,82.482468 
	C167.949005,75.680267 167.866837,69.341278 167.860962,62.672520 
	C167.888474,61.896908 167.839676,61.451057 167.869110,60.637978 
	C167.906433,59.523777 167.865540,58.776810 167.904572,57.602646 
	C167.174149,56.121670 166.435959,54.235699 165.540924,54.158066 
	C161.654572,53.821003 157.722458,53.997967 153.807083,54.013924 
	C150.600815,54.026989 151.087280,56.020462 151.543106,58.461800 
	C151.516663,60.002300 151.625717,61.133980 151.581909,62.686886 
	C151.540115,69.406647 151.651169,75.705170 151.594101,82.212685 
	C150.959290,82.672874 150.492615,82.924072 149.647308,83.106430 
	C148.503738,83.085274 147.738770,83.132950 146.654785,83.125267 
	C145.905228,83.038734 145.474686,83.007553 144.996765,82.511215 
	C144.868225,62.694851 144.787079,43.343655 144.705917,23.992462 
z"/>
<path fill="#4A4A4A" opacity="1.000000" stroke="none" 
	d="
M73.700897,32.993656 
	C75.257385,25.720284 79.483727,21.085585 87.006958,20.064949 
	C94.817871,19.005281 100.289940,22.203297 104.598251,30.235836 
	C104.873955,30.982195 104.864906,31.311049 104.842270,32.138550 
	C104.954811,36.767094 105.080948,40.896984 105.132858,45.488228 
	C105.118057,52.298759 105.177483,58.647938 105.144974,65.423706 
	C104.045395,69.925240 103.037743,74.000191 101.723511,78.225189 
	C93.976013,85.088531 85.971863,85.197609 77.019699,78.390900 
	C75.900589,76.050217 74.896477,74.024773 73.927155,71.531792 
	C73.874931,58.374054 73.787918,45.683857 73.700897,32.993656 
M97.949089,31.325577 
	C96.220596,27.114902 92.970505,25.240889 88.556435,25.622555 
	C84.656853,25.959736 81.605804,27.615816 80.576027,32.727589 
	C80.434464,41.193733 80.265121,49.659546 80.163879,58.126171 
	C80.118156,61.949570 79.950485,65.798294 80.299767,69.593040 
	C80.764244,74.639252 84.477295,77.901520 89.210785,77.963081 
	C93.882729,78.023842 98.084396,75.002785 98.156593,70.380920 
	C98.356178,57.603168 98.023972,44.817104 97.949089,31.325577 
z"/>
<path fill="#898989" opacity="1.000000" stroke="none" 
	d="
M104.855858,31.639900 
	C104.864906,31.311049 104.873955,30.982195 104.901558,30.404400 
	C106.323357,29.143280 108.180313,28.422741 109.050926,27.068224 
	C112.733917,21.338202 117.995071,19.318079 124.454147,20.063086 
	C130.730042,20.786963 134.578491,24.600962 136.794205,31.145166 
	C136.931213,34.246979 136.915619,36.609447 136.596100,39.117455 
	C134.165253,41.761246 132.266876,41.562767 130.583618,38.474045 
	C130.492096,37.771923 130.404465,37.375362 130.381409,36.553635 
	C130.199524,34.437103 129.953094,32.745731 129.653107,30.715912 
	C124.464165,23.733057 118.206512,23.987270 114.711472,31.264988 
	C114.394379,33.040939 114.306465,34.524868 114.159363,36.371838 
	C115.551987,39.232079 116.573441,42.163498 118.554359,44.126888 
	C121.693520,47.238277 125.375221,49.842655 129.006287,52.408352 
	C135.128693,56.734413 138.529602,62.335964 137.869843,70.327118 
	C136.479980,73.447639 135.248199,76.241470 133.697937,79.182503 
	C126.860451,84.554924 120.213768,84.737183 111.876343,79.608475 
	C107.807060,75.224312 107.314156,70.237274 108.330322,64.947716 
	C110.371986,65.007439 111.971176,65.085304 113.454895,65.157555 
	C113.980003,67.825325 113.752884,70.604645 115.020325,72.186356 
	C116.908905,74.543213 119.623741,77.035187 122.403381,77.682976 
	C126.038948,78.530235 129.073929,75.938011 130.306747,72.326378 
	C130.969528,70.384705 130.725967,68.133652 130.933899,65.658752 
	C130.730637,64.514854 130.723343,63.474915 130.201248,62.995068 
	C126.086914,59.213711 121.997070,55.387943 117.660812,51.870312 
	C112.231026,47.465580 107.466354,42.880383 107.546921,35.104660 
	C107.558792,33.959160 105.797012,32.795280 104.855858,31.639900 
z"/>
<path fill="#898989" opacity="1.000000" stroke="none" 
	d="
M280.027191,38.941517 
	C279.969147,37.902237 279.911133,36.862953 279.869751,35.065971 
	C278.268799,27.621447 275.779846,25.449661 270.248810,25.898838 
	C265.712097,26.267267 263.658783,28.962147 263.273926,35.053120 
	C264.814026,38.204456 265.738708,41.938206 268.039612,44.369537 
	C271.424316,47.946064 275.832672,50.541084 279.728821,53.649647 
	C284.364532,57.348305 287.474121,61.869152 286.971863,68.951859 
	C286.253235,72.144173 285.547882,74.543640 284.561249,77.116745 
	C276.697662,85.478027 267.947510,85.683037 259.209625,77.524231 
	C258.291931,75.113564 257.499451,73.053520 256.707031,70.993469 
	C256.810822,69.192253 256.914612,67.391037 257.037354,65.261185 
	C258.912750,65.261185 260.642853,65.261185 262.666931,65.261185 
	C262.907990,66.845291 263.084442,68.444870 263.403107,70.015587 
	C264.321411,74.542221 266.804535,77.771896 271.659729,77.821922 
	C275.901917,77.865623 278.732941,75.514839 279.513123,71.110878 
	C279.653473,70.318840 279.929688,69.550880 280.164795,67.987206 
	C280.375397,61.277966 275.594574,58.948013 272.026062,55.615334 
	C266.913513,50.840607 262.087250,45.759296 257.138763,40.808891 
	C254.191177,34.589249 256.137390,29.168224 260.313446,24.477510 
	C264.641205,19.616367 270.342896,18.945280 276.318634,20.736193 
	C282.402496,22.559505 285.516479,26.959745 286.148224,33.171185 
	C286.315735,34.817905 286.239044,36.489460 285.760071,38.607285 
	C283.506195,39.023808 281.766693,38.982662 280.027191,38.941517 
z"/>
<path fill="#8C8C8C" opacity="1.000000" stroke="none" 
	d="
M223.013794,25.999949 
	C223.173111,24.206036 223.332443,22.412125 223.519409,20.307085 
	C232.921524,20.307085 242.141602,20.307085 251.524170,20.307085 
	C252.843292,24.173531 252.188065,26.233145 247.474304,26.013443 
	C241.875595,25.752497 236.255402,25.952051 230.334991,25.952051 
	C230.334991,33.396252 230.334991,40.312439 230.334991,48.128029 
	C233.515518,48.128029 236.762527,48.300053 239.983749,48.085323 
	C244.191940,47.804798 245.417816,49.551949 244.073181,53.864845 
	C239.748016,53.864845 235.325119,53.864845 230.462204,53.864845 
	C230.462204,61.667461 230.462204,69.027672 230.462204,76.931572 
	C237.329193,76.931572 244.230988,76.931572 251.700607,76.931572 
	C251.835190,78.984978 251.937775,80.550171 251.758423,82.576080 
	C251.476471,83.036804 251.023972,83.165771 250.556793,83.106476 
	C241.389587,83.056465 232.689560,83.065750 223.732147,82.745453 
	C223.382141,80.427483 223.217743,78.439453 223.208191,76.450676 
	C223.127380,59.633846 223.074814,42.816875 223.013794,25.999949 
z"/>
<path fill="#FDFDFD" opacity="1.000000" stroke="none" 
	d="
M130.316849,36.978802 
	C130.404465,37.375362 130.492096,37.771923 130.243561,38.637287 
	C130.414978,40.600063 130.767441,43.274002 131.459396,43.364948 
	C133.469604,43.629162 135.615906,42.857983 137.708817,42.492970 
	C137.439224,41.319286 137.169632,40.145599 136.900024,38.971912 
	C136.915619,36.609447 136.931213,34.246979 136.977722,31.442261 
	C138.121933,31.202652 139.235229,31.405296 139.663727,31.483294 
	C141.231812,28.774496 142.606155,26.400400 144.343201,24.009384 
	C144.787079,43.343655 144.868225,62.694851 144.712357,82.751740 
	C143.232635,86.966660 145.039734,88.117088 148.145554,87.950714 
	C149.775604,87.863388 151.381805,87.330475 152.998779,86.998779 
	C150.811569,90.962425 145.248138,91.272018 142.818604,87.415764 
	C141.706696,85.650894 141.134323,83.546104 140.136292,81.163452 
	C132.598343,89.428520 124.390312,95.356384 113.447952,87.405449 
	C127.082016,92.705757 136.757614,85.739517 139.469818,74.736664 
	C139.809143,73.360039 138.547684,71.588814 138.027939,70.000427 
	C138.529602,62.335964 135.128693,56.734413 129.006287,52.408352 
	C125.375221,49.842655 121.693520,47.238277 118.554359,44.126888 
	C116.573441,42.163498 115.551987,39.232079 114.514717,36.359741 
	C115.521469,35.752796 116.250648,35.668861 116.684929,35.266579 
	C121.665070,30.653301 123.201393,30.716291 127.898567,35.642925 
	C128.504807,36.278770 129.501190,36.542629 130.316849,36.978802 
z"/>
<path fill="#FDFDFD" opacity="1.000000" stroke="none" 
	d="
M73.339539,33.003525 
	C73.787918,45.683857 73.874931,58.374054 73.575592,71.607071 
	C72.966484,73.446892 72.338181,74.835625 72.606407,76.021591 
	C73.145729,78.406219 74.173874,80.680298 75.000305,83.000000 
	C73.276138,81.539566 71.551971,80.079140 70.178375,78.915657 
	C68.737701,82.133904 67.227562,85.507309 65.393623,88.587761 
	C64.675957,86.502609 69.086678,84.545929 64.912552,82.423477 
	C65.018562,62.974617 65.096603,43.986366 65.174652,24.998114 
	C70.226761,25.808172 68.158623,30.283176 69.491470,33.453564 
	C70.580444,33.316090 71.779312,33.164738 73.339539,33.003525 
z"/>
<path fill="#575757" opacity="1.000000" stroke="none" 
	d="
M65.084793,24.575853 
	C65.096603,43.986366 65.018562,62.974617 64.933884,82.408508 
	C64.927254,82.854149 64.879051,82.834351 64.462357,82.889191 
	C62.361237,82.985764 60.676815,83.027496 58.781723,82.711914 
	C58.500469,80.031502 58.381050,77.708687 58.367149,75.385254 
	C58.266655,58.590767 58.187508,41.796150 58.101601,25.001575 
	C58.281700,23.542793 58.461803,22.084011 58.682373,20.297455 
	C60.631233,20.297455 62.500168,20.297455 64.745079,20.297455 
	C64.830254,21.611984 64.912590,22.882790 65.084793,24.575853 
z"/>
<path fill="#FCFCFC" opacity="1.000000" stroke="none" 
	d="
M174.862595,82.621651 
	C174.851746,63.723717 174.840897,44.825783 174.903839,25.463810 
	C175.984650,26.794456 177.446167,28.486633 177.880081,30.410572 
	C178.387421,32.660011 177.998688,35.111546 179.180634,37.770199 
	C180.225876,36.550716 181.271133,35.331230 182.669617,34.055737 
	C183.068405,35.391167 183.113953,36.782608 182.689941,38.676418 
	C181.817200,40.010021 181.047897,40.849388 181.066177,41.671257 
	C181.313095,52.782566 181.669479,63.891438 181.998779,75.000916 
	C180.990387,74.512268 179.981995,74.023613 178.565338,73.337128 
	C178.095184,77.247597 178.174484,81.221306 176.978210,84.764313 
	C176.283325,86.822350 173.448074,89.607956 171.742767,89.497215 
	C169.737228,89.366982 167.912415,86.454079 166.182037,84.122467 
	C166.933182,83.313263 167.511505,83.129471 168.089828,82.945679 
	C168.089828,82.945671 168.004471,82.969421 168.016983,83.318054 
	C169.162674,85.071022 170.295853,86.475357 171.429031,87.879700 
	C172.573547,86.127014 173.718063,84.374329 174.862595,82.621651 
z"/>
<path fill="#F9F9F9" opacity="1.000000" stroke="none" 
	d="
M75.280945,83.130569 
	C74.173874,80.680298 73.145729,78.406219 72.606407,76.021591 
	C72.338181,74.835625 72.966484,73.446892 73.540794,72.074600 
	C74.896477,74.024773 75.900589,76.050217 76.985703,78.779976 
	C78.579109,84.458633 83.048630,87.177460 89.410324,86.992966 
	C96.147179,86.797585 100.723495,83.563713 102.030098,78.075134 
	C103.037743,74.000191 104.045395,69.925240 105.476593,65.422363 
	C106.562706,64.984901 107.225273,64.975380 107.887848,64.965866 
	C107.314156,70.237274 107.807060,75.224312 111.866455,79.981949 
	C113.210716,82.116493 114.156242,83.908035 115.628555,84.967522 
	C121.877419,89.464256 132.472824,85.959396 134.016434,79.035309 
	C135.248199,76.241470 136.479980,73.447639 137.869843,70.327118 
	C138.547684,71.588814 139.809143,73.360039 139.469818,74.736664 
	C136.757614,85.739517 127.082016,92.705757 113.240356,86.741104 
	C106.660042,79.825714 106.828735,80.043472 99.705696,85.561531 
	C97.292389,87.431053 93.765015,88.848595 90.790337,88.772346 
	C86.506088,88.662521 82.261650,86.999725 78.000214,85.999695 
	C77.187332,85.086845 76.374458,84.173996 75.280945,83.130569 
z"/>
<path fill="#FAFAFA" opacity="1.000000" stroke="none" 
	d="
M57.727280,25.063622 
	C58.187508,41.796150 58.266655,58.590767 58.367149,75.385254 
	C58.381050,77.708687 58.500469,80.031502 58.790688,83.081902 
	C59.829411,84.834969 60.648495,85.860725 61.467579,86.886490 
	C62.604736,85.535774 63.741894,84.185066 64.879051,82.834351 
	C64.879051,82.834351 64.927254,82.854149 64.905930,82.869125 
	C69.086678,84.545929 64.675957,86.502609 65.034500,88.646942 
	C63.610527,88.999374 62.221874,88.999664 60.249401,88.754593 
	C59.110435,88.339378 58.555294,88.169533 58.000153,87.999695 
	C58.000153,87.999695 58.000000,88.000000 57.842388,87.648491 
	C57.123230,84.925430 56.126968,82.562950 56.077221,80.180710 
	C55.886635,71.054710 56.019245,61.922272 55.981319,52.792442 
	C55.974964,51.262089 55.721359,49.732758 55.439758,46.641479 
	C51.208721,52.114727 47.959293,56.318161 44.709869,60.521599 
	C43.936733,58.531254 43.163593,56.540913 42.270912,54.242817 
	C50.321289,49.684586 52.669270,42.533642 51.724297,33.468071 
	C52.840305,32.209824 54.265476,31.613874 54.961048,30.543711 
	C56.023067,28.909756 56.581001,26.948160 57.727280,25.063622 
z"/>
<path fill="#FDFDFD" opacity="1.000000" stroke="none" 
	d="
M44.759750,60.875092 
	C47.959293,56.318161 51.208721,52.114727 55.439758,46.641479 
	C55.721359,49.732758 55.974964,51.262089 55.981319,52.792442 
	C56.019245,61.922272 55.886635,71.054710 56.077221,80.180710 
	C56.126968,82.562950 57.123230,84.925430 57.842464,87.648338 
	C56.252811,88.304466 54.505466,88.609230 52.419086,88.588036 
	C52.021328,86.493637 51.962612,84.725197 51.903893,82.956757 
	C49.539143,75.714035 47.174389,68.471313 44.759750,60.875092 
z"/>
<path fill="#FAFAFA" opacity="1.000000" stroke="none" 
	d="
M251.023972,83.165771 
	C251.023972,83.165771 251.476471,83.036804 251.710052,83.009125 
	C254.554535,85.330040 254.169495,88.515572 250.879654,88.710472 
	C242.515701,89.205994 234.082733,89.272171 225.734619,88.689949 
	C224.028702,88.570969 221.324554,84.935776 221.205597,82.802910 
	C220.466888,69.558014 220.078995,56.278526 220.120773,43.012241 
	C220.138458,37.398239 221.482025,31.788412 222.618378,26.088318 
	C223.074814,42.816875 223.127380,59.633846 223.208191,76.450676 
	C223.217743,78.439453 223.382141,80.427483 223.784561,83.115402 
	C225.769012,84.875565 227.392502,86.740379 229.127640,86.850815 
	C235.087738,87.230164 241.087479,86.948296 247.070999,87.015678 
	C249.776825,87.046150 251.127045,85.908676 251.023972,83.165771 
z"/>
<path fill="#FAFAFA" opacity="1.000000" stroke="none" 
	d="
M20.970749,25.999420 
	C21.046524,44.586906 21.122301,63.174393 21.151873,82.586266 
	C22.281204,84.564941 23.456738,85.719223 24.632271,86.873512 
	C25.712839,85.467079 26.793407,84.060646 27.873978,82.654213 
	C27.866613,75.742645 27.859249,68.831078 28.265034,61.416183 
	C29.119062,60.278019 29.559942,59.643185 30.417315,59.005997 
	C32.221977,59.006344 33.610149,59.009037 34.998596,59.385300 
	C34.999195,60.506016 34.999519,61.253159 34.586441,62.001324 
	C30.804073,61.732143 29.905611,63.570217 29.968805,66.590134 
	C30.083223,72.058014 30.000690,77.530022 30.000381,83.000305 
	C30.000269,83.444679 30.000158,83.889061 29.754681,84.833923 
	C29.339493,85.889610 29.169670,86.444801 28.999847,87.000000 
	C28.677038,87.101311 28.415895,87.288597 27.810379,87.801620 
	C26.936224,88.360931 26.468111,88.680466 26.000000,89.000000 
	C25.250000,89.000000 24.500000,89.000000 23.207819,88.754715 
	C22.110451,88.339615 21.555264,88.169807 21.000076,88.000000 
	C20.898787,87.677185 20.711525,87.416023 20.198494,86.810471 
	C19.639185,85.936272 19.319668,85.468132 19.000153,85.000000 
	C19.000025,84.555626 18.999897,84.111244 18.999893,82.864899 
	C18.999886,64.041862 18.999752,46.020813 18.999619,27.999758 
	C18.999781,27.555391 18.999941,27.111027 19.328632,26.333353 
	C20.095024,25.999838 20.532887,25.999628 20.970749,25.999420 
z"/>
<path fill="#FAFAFA" opacity="1.000000" stroke="none" 
	d="
M212.833038,76.697502 
	C213.521973,71.525551 214.600830,66.369408 214.811188,61.178066 
	C215.151779,52.773220 214.922012,44.345261 215.006744,35.463196 
	C216.046478,37.070930 217.846649,39.145340 217.839691,41.213669 
	C217.802002,52.416683 217.614731,63.638523 216.850815,74.810928 
	C216.511429,79.774506 214.507965,84.497391 208.368652,85.995125 
	C207.997086,85.996323 207.990204,85.987411 208.139099,85.683395 
	C209.802994,82.485420 211.318024,79.591461 212.833038,76.697502 
z"/>
<path fill="#FAFAFA" opacity="1.000000" stroke="none" 
	d="
M181.999084,75.407166 
	C181.669479,63.891438 181.313095,52.782566 181.066177,41.671257 
	C181.047897,40.849388 181.817200,40.010021 182.618515,39.089119 
	C183.078812,48.092102 182.992081,57.189522 183.282928,66.274849 
	C183.386368,69.506340 184.406891,72.708473 185.046707,76.684799 
	C186.242676,82.807739 189.792450,86.810165 194.291779,86.886620 
	C198.851517,86.964096 203.423553,86.317093 207.990204,85.987411 
	C207.990204,85.987411 207.997086,85.996323 208.000427,86.000145 
	C204.702271,90.844650 199.517761,89.358223 195.406891,88.765297 
	C187.518646,87.627556 182.607635,84.825989 181.999084,75.407166 
z"/>
<path fill="#FAFAFA" opacity="1.000000" stroke="none" 
	d="
M284.842529,76.943108 
	C285.547882,74.543640 286.253235,72.144173 287.039673,69.371857 
	C287.651794,71.791252 289.116821,74.795258 288.540649,77.336502 
	C286.729156,85.326828 278.182831,90.855835 270.140320,89.976067 
	C261.706329,89.053459 254.854904,82.336349 254.302872,74.182343 
	C254.236633,73.203697 255.420135,72.140450 256.365662,71.054939 
	C257.499451,73.053520 258.291931,75.113564 258.912476,77.693100 
	C258.747620,78.963211 258.491455,79.851372 258.801117,80.443810 
	C263.411591,89.264900 276.515228,90.806671 283.827637,82.035736 
	C284.801270,80.867897 284.534729,78.666084 284.842529,76.943108 
z"/>
<path fill="#EEEEEE" opacity="1.000000" stroke="none" 
	d="
M256.981354,41.135101 
	C262.087250,45.759296 266.913513,50.840607 272.026062,55.615334 
	C275.594574,58.948013 280.375397,61.277966 280.113464,67.597260 
	C275.176788,63.965103 270.249268,60.011898 265.476227,55.880295 
	C263.106750,53.829273 260.568390,51.732750 258.947083,49.132637 
	C257.600830,46.973682 257.484894,44.047581 256.981354,41.135101 
z"/>
<path fill="#FDFDFD" opacity="1.000000" stroke="none" 
	d="
M18.603168,28.090935 
	C18.999752,46.020813 18.999886,64.041862 18.999819,82.531616 
	C18.333790,81.877129 17.096838,80.758392 17.088058,79.630096 
	C16.962406,63.482140 16.981056,47.332798 17.054230,31.184189 
	C17.058775,30.181778 17.805370,29.182728 18.603168,28.090935 
z"/>
<path fill="#FDFDFD" opacity="1.000000" stroke="none" 
	d="
M30.396755,82.909149 
	C30.000690,77.530022 30.083223,72.058014 29.968805,66.590134 
	C29.905611,63.570217 30.804073,61.732143 34.853294,62.126701 
	C37.689461,68.501968 39.845375,74.752876 42.001289,81.003784 
	C41.306175,81.041946 40.064632,81.277832 39.996365,81.089165 
	C38.531639,77.041374 37.237980,72.932198 35.819767,68.866814 
	C35.257160,67.254082 34.474678,65.718048 33.792301,64.147095 
	C33.194817,64.224884 32.597332,64.302681 31.999847,64.380470 
	C31.999847,68.366219 32.134323,72.358330 31.946348,76.335197 
	C31.843578,78.509438 31.195368,80.657898 30.396755,82.909149 
z"/>
<path fill="#EAEAEA" opacity="1.000000" stroke="none" 
	d="
M263.608337,34.988174 
	C263.658783,28.962147 265.712097,26.267267 270.248810,25.898838 
	C275.779846,25.449661 278.268799,27.621447 279.807739,34.680592 
	C279.407837,34.970852 279.029877,34.971172 278.773468,34.794754 
	C271.119781,29.528275 271.121674,29.525522 263.608337,34.988174 
z"/>
<path fill="#FDFDFD" opacity="1.000000" stroke="none" 
	d="
M168.060516,82.482468 
	C167.511505,83.129471 166.933182,83.313263 166.177124,83.748749 
	C165.338974,83.229797 164.112244,82.462250 164.108017,81.688034 
	C164.075073,75.655624 164.277359,69.621941 165.051834,63.294357 
	C166.392685,63.000809 167.088684,63.001545 167.784668,63.002281 
	C167.866837,69.341278 167.949005,75.680267 168.060516,82.482468 
z"/>
<path fill="#FDFDFD" opacity="1.000000" stroke="none" 
	d="
M78.042656,86.364243 
	C82.261650,86.999725 86.506088,88.662521 90.790337,88.772346 
	C93.765015,88.848595 97.292389,87.431053 99.705696,85.561531 
	C106.828735,80.043472 106.660042,79.825714 112.852509,86.696320 
	C108.819656,86.116669 102.375847,87.023705 97.643097,89.161674 
	C90.437355,92.416771 82.022346,91.370010 78.042656,86.364243 
z"/>
<path fill="#EAEAEA" opacity="1.000000" stroke="none" 
	d="
M151.678604,58.052979 
	C151.087280,56.020462 150.600815,54.026989 153.807083,54.013924 
	C157.722458,53.997967 161.654572,53.821003 165.540924,54.158066 
	C166.435959,54.235699 167.174149,56.121670 167.584625,57.598534 
	C166.455978,58.344780 165.727234,58.667957 164.998489,58.991135 
	C163.283218,58.990051 161.567932,58.988968 159.117340,58.832588 
	C156.147552,58.469185 153.913071,58.261082 151.678604,58.052979 
z"/>
<path fill="#FCFCFC" opacity="1.000000" stroke="none" 
	d="
M151.762238,82.003700 
	C151.651169,75.705170 151.540115,69.406647 151.752228,62.785141 
	C152.716934,62.308193 153.358475,62.154221 154.000000,62.000248 
	C153.864487,68.470619 153.728989,74.940987 152.987457,81.706093 
	C152.175018,82.001785 151.968628,82.002747 151.762238,82.003700 
z"/>
<path fill="#F9F9F9" opacity="1.000000" stroke="none" 
	d="
M42.219093,81.129333 
	C39.845375,74.752876 37.689461,68.501968 35.266697,62.125679 
	C34.999519,61.253159 34.999195,60.506016 35.311546,59.381908 
	C36.041458,59.006721 36.458694,59.008495 36.875931,59.010269 
	C39.268692,66.354691 41.661453,73.699120 44.066425,81.433990 
	C43.531391,81.634590 42.984142,81.444733 42.219093,81.129333 
z"/>
<path fill="#F9F9F9" opacity="1.000000" stroke="none" 
	d="
M151.594101,82.212685 
	C151.968628,82.002747 152.175018,82.001785 152.691010,82.000412 
	C153.000214,83.388580 152.999802,84.777161 152.999084,86.582260 
	C151.381805,87.330475 149.775604,87.863388 148.145554,87.950714 
	C145.039734,88.117088 143.232635,86.966660 144.759735,83.216904 
	C145.474686,83.007553 145.905228,83.038734 146.722229,83.437653 
	C148.081100,83.595352 149.053513,83.385307 150.025940,83.175262 
	C150.492615,82.924072 150.959290,82.672874 151.594101,82.212685 
z"/>
<path fill="#F9F9F9" opacity="1.000000" stroke="none" 
	d="
M154.237991,61.728153 
	C153.358475,62.154221 152.716934,62.308193 151.905090,62.363911 
	C151.625717,61.133980 151.516663,60.002300 151.543106,58.461800 
	C153.913071,58.261082 156.147552,58.469185 158.688629,58.829964 
	C157.488831,59.807114 155.982407,60.631588 154.237991,61.728153 
z"/>
<path fill="#EEEEEE" opacity="1.000000" stroke="none" 
	d="
M280.021790,39.319359 
	C281.766693,38.982662 283.506195,39.023808 285.682312,39.056236 
	C285.553772,40.590080 284.988586,42.132641 284.423431,43.675201 
	C282.954407,42.349205 281.485382,41.023205 280.021790,39.319359 
z"/>
<path fill="#FAFAFA" opacity="1.000000" stroke="none" 
	d="
M51.675167,82.979492 
	C51.962612,84.725197 52.021328,86.493637 52.039642,88.630585 
	C50.610573,88.999390 49.221905,88.999695 47.249413,88.754715 
	C46.110340,88.339714 45.555096,88.170013 44.999847,88.000305 
	C44.826572,86.796204 44.653297,85.592094 44.891365,84.500565 
	C49.075432,88.017776 49.829105,87.826218 51.015114,83.161232 
	C51.015114,83.161232 51.446442,83.002220 51.675167,82.979492 
z"/>
<path fill="#EEEEEE" opacity="1.000000" stroke="none" 
	d="
M50.599342,83.101059 
	C49.829105,87.826218 49.075432,88.017776 45.144737,84.304794 
	C45.015812,83.749199 45.044865,83.501961 45.148750,82.888535 
	C46.876911,82.695190 48.530243,82.868034 50.599342,83.101059 
z"/>
<path fill="#F9F9F9" opacity="1.000000" stroke="none" 
	d="
M165.103546,59.251694 
	C165.727234,58.667957 166.455978,58.344780 167.504684,58.025723 
	C167.865540,58.776810 167.906433,59.523777 167.569427,60.637871 
	C166.791367,61.003334 166.391190,61.001675 165.991013,61.000011 
	C165.730194,60.504093 165.469391,60.008175 165.103546,59.251694 
z"/>
<path fill="#FDFDFD" opacity="1.000000" stroke="none" 
	d="
M21.065083,25.630247 
	C20.532887,25.999628 20.095024,25.999838 19.328772,26.000080 
	C19.443895,25.020691 19.887409,24.041267 20.652828,23.030878 
	C21.036293,23.753632 21.097855,24.507355 21.065083,25.630247 
z"/>
<path fill="#FCFCFC" opacity="1.000000" stroke="none" 
	d="
M165.747543,61.168343 
	C166.391190,61.001675 166.791367,61.003334 167.491211,61.005104 
	C167.839676,61.451057 167.888474,61.896908 167.860962,62.672516 
	C167.088684,63.001545 166.392685,63.000809 165.348358,63.000034 
	C165.168030,62.445560 165.336060,61.891121 165.747543,61.168343 
z"/>
<path fill="#FDFDFD" opacity="1.000000" stroke="none" 
	d="
M18.771809,85.171494 
	C19.319668,85.468132 19.639185,85.936272 19.979427,86.702202 
	C19.514589,86.447662 19.029028,85.895332 18.771809,85.171494 
z"/>
<path fill="#FDFDFD" opacity="1.000000" stroke="none" 
	d="
M29.292545,86.969368 
	C29.169670,86.444801 29.339493,85.889610 29.754581,85.167206 
	C29.861645,85.646248 29.723444,86.292488 29.292545,86.969368 
z"/>
<path fill="#FDFDFD" opacity="1.000000" stroke="none" 
	d="
M21.030674,88.292686 
	C21.555264,88.169807 22.110451,88.339615 22.832819,88.754715 
	C22.353756,88.861794 21.707512,88.723587 21.030674,88.292686 
z"/>
<path fill="#FDFDFD" opacity="1.000000" stroke="none" 
	d="
M26.171505,89.228325 
	C26.468111,88.680466 26.936224,88.360931 27.702129,88.020699 
	C27.447620,88.485550 26.895315,88.971100 26.171505,89.228325 
z"/>
<path fill="#FDFDFD" opacity="1.000000" stroke="none" 
	d="
M45.030540,88.292953 
	C45.555096,88.170013 46.110340,88.339714 46.832794,88.754715 
	C46.353745,88.861862 45.707489,88.723732 45.030540,88.292953 
z"/>
<path fill="#FDFDFD" opacity="1.000000" stroke="none" 
	d="
M58.030724,88.292419 
	C58.555294,88.169533 59.110435,88.339378 59.832787,88.754456 
	C59.353764,88.861511 58.707531,88.723335 58.030724,88.292419 
z"/>
<path fill="#FCFCFC" opacity="1.000000" stroke="none" 
	d="
M44.794701,34.020374 
	C45.830013,42.366562 43.643383,47.707134 38.237675,48.698631 
	C35.062897,49.280937 31.694004,48.804890 27.859306,48.804890 
	C27.859306,43.067535 27.859306,37.496780 28.347153,31.411419 
	C34.897537,28.143517 39.786297,31.387613 44.794701,34.020374 
z"/>
<path fill="#EEEEEE" opacity="1.000000" stroke="none" 
	d="
M44.837646,33.661240 
	C39.786297,31.387613 34.897537,28.143517 28.433376,30.950092 
	C28.031754,29.424030 28.031754,27.844694 28.031754,26.308033 
	C39.074337,24.553343 42.039928,25.809734 44.837646,33.661240 
z"/>
<path fill="#EEEEEE" opacity="1.000000" stroke="none" 
	d="
M36.988155,58.594017 
	C36.458694,59.008495 36.041458,59.006721 35.311272,59.008339 
	C33.610149,59.009037 32.221977,59.006344 30.089464,59.003067 
	C28.907988,59.002750 28.470850,59.003014 28.033714,59.003281 
	C28.033714,57.754608 28.033714,56.505939 28.033714,54.692963 
	C31.290293,56.018845 35.967564,51.740883 36.988155,58.594017 
z"/>
<path fill="#F9F9F9" opacity="1.000000" stroke="none" 
	d="
M27.462799,82.770981 
	C26.793407,84.060646 25.712839,85.467079 24.632271,86.873512 
	C23.456738,85.719223 22.281204,84.564941 21.115505,83.031967 
	C23.100769,82.731430 25.076197,82.809586 27.462799,82.770981 
z"/>
<path fill="#F9F9F9" opacity="1.000000" stroke="none" 
	d="
M27.948078,59.332924 
	C28.470850,59.003014 28.907988,59.002750 29.672974,59.005417 
	C29.559942,59.643185 29.119062,60.278019 28.362621,60.956310 
	C27.985523,60.554031 27.923983,60.108299 27.948078,59.332924 
z"/>
<path fill="#FEFEFE" opacity="1.000000" stroke="none" 
	d="
M207.761734,35.013626 
	C207.834991,46.298466 208.009933,57.583977 207.936462,68.867867 
	C207.902283,74.116661 204.162537,77.765259 199.247391,77.922028 
	C194.240372,78.081726 190.161789,74.285805 190.080811,68.811829 
	C189.923660,58.188873 190.058136,47.561604 190.507385,36.461716 
	C195.772217,31.617838 200.813568,30.429302 206.294495,34.888481 
	C206.609207,35.144527 207.264786,34.981575 207.761734,35.013626 
z"/>
<path fill="#EAEAEA" opacity="1.000000" stroke="none" 
	d="
M208.139099,85.683395 
	C203.423553,86.317093 198.851517,86.964096 194.291779,86.886620 
	C189.792450,86.810165 186.242676,82.807739 185.138611,77.047073 
	C193.966125,85.789169 203.954651,85.958473 212.555145,76.902557 
	C211.318024,79.591461 209.802994,82.485420 208.139099,85.683395 
z"/>
<path fill="#EEEEEE" opacity="1.000000" stroke="none" 
	d="
M190.841324,31.947622 
	C191.532852,28.160555 193.941925,26.285551 197.643921,25.935806 
	C201.984634,25.525721 205.516922,26.655687 206.803711,31.538307 
	C201.234604,28.990828 196.035828,29.747066 190.841324,31.947622 
z"/>
<path fill="#F9F9F9" opacity="1.000000" stroke="none" 
	d="
M190.622803,32.225410 
	C196.035828,29.747066 201.234604,28.990828 206.851410,31.904881 
	C207.481400,32.728329 207.704254,33.548222 207.844421,34.690872 
	C207.264786,34.981575 206.609207,35.144527 206.294495,34.888481 
	C200.813568,30.429302 195.772217,31.617838 190.587570,36.000271 
	C190.289536,34.843224 190.346909,33.673210 190.622803,32.225410 
z"/>
<path fill="#F9F9F9" opacity="1.000000" stroke="none" 
	d="
M174.451202,82.741905 
	C173.718063,84.374329 172.573547,86.127014 171.429031,87.879700 
	C170.295853,86.475357 169.162674,85.071022 168.045532,83.284180 
	C170.054321,82.888496 172.047058,82.875328 174.451202,82.741905 
z"/>
<path fill="#EAEAEA" opacity="1.000000" stroke="none" 
	d="
M149.647308,83.106430 
	C149.053513,83.385307 148.081100,83.595352 147.041245,83.493011 
	C147.738770,83.132950 148.503738,83.085274 149.647308,83.106430 
z"/>
<path fill="#FDFDFD" opacity="1.000000" stroke="none" 
	d="
M97.902008,32.034328 
	C98.023972,44.817104 98.356178,57.603168 98.156593,70.380920 
	C98.084396,75.002785 93.882729,78.023842 89.210785,77.963081 
	C84.477295,77.901520 80.764244,74.639252 80.299767,69.593040 
	C79.950485,65.798294 80.118156,61.949570 80.163879,58.126171 
	C80.265121,49.659546 80.434464,41.193733 81.126450,32.299728 
	C87.123772,28.079048 92.519653,29.380993 97.902008,32.034328 
z"/>
<path fill="#FCFCFC" opacity="1.000000" stroke="none" 
	d="
M108.330322,64.947716 
	C107.225273,64.975380 106.562706,64.984901 105.568520,64.995773 
	C105.177483,58.647938 105.118057,52.298759 105.488220,45.491936 
	C107.297569,46.056374 108.743103,47.001385 110.046112,48.113400 
	C117.014153,54.060009 123.946617,60.048306 130.891373,66.022194 
	C130.725967,68.133652 130.969528,70.384705 130.306747,72.326378 
	C129.073929,75.938011 126.038948,78.530235 122.403381,77.682976 
	C119.623741,77.035187 116.908905,74.543213 115.020325,72.186356 
	C113.752884,70.604645 113.980003,67.825325 113.454895,65.157555 
	C111.971176,65.085304 110.371986,65.007439 108.330322,64.947716 
z"/>
<path fill="#EAEAEA" opacity="1.000000" stroke="none" 
	d="
M130.933899,65.658752 
	C123.946617,60.048306 117.014153,54.060009 110.046112,48.113400 
	C108.743103,47.001385 107.297569,46.056374 105.562439,45.030586 
	C105.080948,40.896984 104.954811,36.767094 104.842270,32.138550 
	C105.797012,32.795280 107.558792,33.959160 107.546921,35.104660 
	C107.466354,42.880383 112.231026,47.465580 117.660812,51.870312 
	C121.997070,55.387943 126.086914,59.213711 130.201248,62.995068 
	C130.723343,63.474915 130.730637,64.514854 130.933899,65.658752 
z"/>
<path fill="#EAEAEA" opacity="1.000000" stroke="none" 
	d="
M101.723511,78.225189 
	C100.723495,83.563713 96.147179,86.797585 89.410324,86.992966 
	C83.048630,87.177460 78.579109,84.458633 77.100693,79.095215 
	C85.971863,85.197609 93.976013,85.088531 101.723511,78.225189 
z"/>
<path fill="#D2D2D2" opacity="1.000000" stroke="none" 
	d="
M97.925552,31.679953 
	C92.519653,29.380993 87.123772,28.079048 81.306679,31.922995 
	C81.605804,27.615816 84.656853,25.959736 88.556435,25.622555 
	C92.970505,25.240889 96.220596,27.114902 97.925552,31.679953 
z"/>
<path fill="#EAEAEA" opacity="1.000000" stroke="none" 
	d="
M133.697937,79.182503 
	C132.472824,85.959396 121.877419,89.464256 115.628555,84.967522 
	C114.156242,83.908035 113.210716,82.116493 112.032730,80.288254 
	C120.213768,84.737183 126.860451,84.554924 133.697937,79.182503 
z"/>
<path fill="#F9F9F9" opacity="1.000000" stroke="none" 
	d="
M130.381409,36.553635 
	C129.501190,36.542629 128.504807,36.278770 127.898567,35.642925 
	C123.201393,30.716291 121.665070,30.653301 116.684929,35.266579 
	C116.250648,35.668861 115.521469,35.752796 114.573914,35.996700 
	C114.306465,34.524868 114.394379,33.040939 115.106224,31.266975 
	C120.401535,28.739447 125.054291,29.862207 129.706665,31.054363 
	C129.953094,32.745731 130.199524,34.437103 130.381409,36.553635 
z"/>
<path fill="#EAEAEA" opacity="1.000000" stroke="none" 
	d="
M129.653107,30.715912 
	C125.054291,29.862207 120.401535,28.739447 115.335419,30.974957 
	C118.206512,23.987270 124.464165,23.733057 129.653107,30.715912 
z"/>
<path fill="#F9F9F9" opacity="1.000000" stroke="none" 
	d="
M136.596100,39.117455 
	C137.169632,40.145599 137.439224,41.319286 137.708817,42.492970 
	C135.615906,42.857983 133.469604,43.629162 131.459396,43.364948 
	C130.767441,43.274002 130.414978,40.600063 130.247452,38.942848 
	C132.266876,41.562767 134.165253,41.761246 136.596100,39.117455 
z"/>
<path fill="#EEEEEE" opacity="1.000000" stroke="none" 
	d="
M284.561249,77.116745 
	C284.534729,78.666084 284.801270,80.867897 283.827637,82.035736 
	C276.515228,90.806671 263.411591,89.264900 258.801117,80.443810 
	C258.491455,79.851372 258.747620,78.963211 259.037720,78.043716 
	C267.947510,85.683037 276.697662,85.478027 284.561249,77.116745 
z"/>
<path fill="#EEEEEE" opacity="1.000000" stroke="none" 
	d="
M250.556793,83.106476 
	C251.127045,85.908676 249.776825,87.046150 247.070999,87.015678 
	C241.087479,86.948296 235.087738,87.230164 229.127640,86.850815 
	C227.392502,86.740379 225.769012,84.875565 224.041931,83.444992 
	C232.689560,83.065750 241.389587,83.056465 250.556793,83.106476 
z"/>
<path fill="#EEEEEE" opacity="1.000000" stroke="none" 
	d="
M64.462357,82.889191 
	C63.741894,84.185066 62.604736,85.535774 61.467579,86.886490 
	C60.648495,85.860725 59.829411,84.834969 59.001362,83.439209 
	C60.676815,83.027496 62.361237,82.985764 64.462357,82.889191 
z"/>
</svg>