<svg xmlns="http://www.w3.org/2000/svg" viewBox="0 30.649999618530273 24.450000762939453 34.5" data-asc="1.303" width="24.450000762939453" height="34.5"><defs/><g><g fill="#505050"><g transform="translate(0, 0)"><path d="M0 65.15L0 30.65L12.90 30.65Q16.65 30.65 19.15 31.75Q21.65 32.85 22.93 35.20Q24.20 37.55 24.20 41.25Q24.20 45.05 22.70 47.62Q21.20 50.20 18.05 51.30L24.45 65.15L19.65 65.15L13.75 52.25L4.40 52.25L4.40 65.15L0 65.15M4.40 48.45L13 48.45Q15.45 48.45 16.93 47.52Q18.40 46.60 19.03 44.97Q19.65 43.35 19.65 41.30Q19.65 37.85 18 36.15Q16.35 34.45 12.90 34.45L4.40 34.45L4.40 48.45Z"/></g></g></g></svg>