  <svg
    xmlns="http://www.w3.org/2000/svg"
    x="0px"
    y="0px"
    viewBox="0 0 24 24"
>
    <path
        fill="currentColor"
        d="M 11.988281 0.99023438 A 0.750075 0.750075 0 0 0 11.25 1.75 L 11.25 3.1523438 C 7.2185669 3.5496326 4.0175781 6.8479156 4.0175781 10.982422 L 4.0175781 14.082031 C 4.0175781 16.848644 2.1699219 18.71875 2.1699219 18.71875 A 0.750075 0.750075 0 0 0 2.6992188 20 L 9 20 C 9 21.648068 10.351932 23 12 23 C 13.648068 23 15 21.648068 15 20 L 21.300781 20 A 0.750075 0.750075 0 0 0 21.830078 18.71875 C 21.830078 18.71875 19.982422 16.848644 19.982422 14.082031 L 19.982422 10.982422 C 19.982422 6.8479156 16.781433 3.5496326 12.75 3.1523438 L 12.75 1.75 A 0.750075 0.750075 0 0 0 11.988281 0.99023438 z M 12 4.5 C 15.588642 4.5 18.482422 7.3928035 18.482422 10.982422 L 18.482422 14.082031 C 18.482422 16.107423 19.179375 17.513214 19.832031 18.5 L 4.1679688 18.5 C 4.8206249 17.513214 5.5175781 16.107423 5.5175781 14.082031 L 5.5175781 10.982422 C 5.5175781 7.3928035 8.411358 4.5 12 4.5 z M 10.5 20 L 13.5 20 C 13.5 20.837932 12.837932 21.5 12 21.5 C 11.162068 21.5 10.5 20.837932 10.5 20 z"
    ></path>
</svg>