<svg fill="#1A1A1A" xmlns="http://www.w3.org/2000/svg"  viewBox="0 0 24 24" width="48px" height="48px"><path d="M 8 3 C 5.25 3 3 5.25 3 8 L 3 16 C 3 18.75 5.25 21 8 21 L 11.832031 21 A 1.0001 1.0001 0 0 0 12.158203 21 L 16 21 C 18.75 21 21 18.75 21 16 L 21 8 C 21 5.25 18.75 3 16 3 L 8 3 z M 8 5 L 16 5 C 17.668 5 19 6.332 19 8 L 19 16 C 19 17.668 17.668 19 16 19 L 13 19 L 13 14 L 15 14 A 1.0001 1.0001 0 1 0 15 12 L 13 12 L 13 11 C 13 10.43497 13.43497 10 14 10 L 15 10 A 1.0001 1.0001 0 1 0 15 8 L 14 8 C 12.35503 8 11 9.3550302 11 11 L 11 12 L 10 12 A 1.0001 1.0001 0 1 0 10 14 L 11 14 L 11 19 L 8 19 C 6.332 19 5 17.668 5 16 L 5 8 C 5 6.332 6.332 5 8 5 z"/></svg>