<svg fill="currentColor" xmlns="http://www.w3.org/2000/svg" viewBox="0 0 120 120">
    <path
        d="M60,120l-1.4-1C56.7,117.6,13,86,13,47C13,21.1,34.1,0,60,0s47,21.1,47,47c0,39-43.7,70.6-45.6,72L60,120z M60,5
    C36.8,5,18,23.8,18,47c0,32.6,34.5,61,42,66.8c7.5-5.8,42-34.2,42-66.8C102,23.8,83.2,5,60,5z"
    />
    <path
        d="M60,74.9c-15.4,0-27.9-12.5-27.9-27.9S44.6,19.1,60,19.1S87.9,31.6,87.9,47S75.4,74.9,60,74.9z M60,24
    c-12.7,0-23,10.3-23,23s10.3,23,23,23s23-10.3,23-23S72.7,24,60,24z"
    />
</svg>